<svg width="176" height="48" viewBox="0 0 176 48" fill="none" xmlns="http://www.w3.org/2000/svg">
  <rect x="1" y="1" width="46" height="46" rx="15" fill="url(#paint0_linear)" stroke="currentColor" stroke-opacity="0.12" stroke-width="2"/>
  <path d="M15 31.5V15h4.2v12.7h8.1v3.8H15Z" fill="white"/>
  <path d="M28.6 31.5 24 15h4.4l2.2 9.5L33.4 15h3.9l-4.9 16.5h-3.8Z" fill="white" fill-opacity="0.9"/>
  <path d="M60 17.5h4.4v15h-4.4v-15Zm7.6 0h4.2l6.1 8.1v-8.1h4.2v15h-4l-6.3-8.4v8.4h-4.2v-15Zm22.5 15.3c-1.6 0-3-.3-4.2-1-1.2-.7-2.2-1.6-2.9-2.8-.7-1.2-1-2.5-1-4s.3-2.8 1-4c.7-1.2 1.7-2.1 2.9-2.8 1.2-.7 2.6-1 4.2-1 1.1 0 2.2.2 3.2.6 1 .4 1.8.9 2.5 1.6l-2.6 3.1c-.9-.8-1.9-1.2-3-1.2s-2 .3-2.7 1c-.7.7-1.1 1.6-1.1 2.7s.4 2 1.1 2.7c.7.7 1.6 1 2.7 1 1.2 0 2.2-.4 3-1.2l2.6 3.1c-.7.7-1.5 1.2-2.5 1.6-1 .4-2.1.6-3.2.6Zm7.1-15.3h4.4v11.2h7v3.8H97.2v-15Zm19.6 15.3c-1.6 0-3-.3-4.2-1-1.2-.7-2.2-1.6-2.9-2.8-.7-1.2-1-2.5-1-4s.3-2.8 1-4c.7-1.2 1.7-2.1 2.9-2.8 1.2-.7 2.6-1 4.2-1s3 .3 4.2 1c1.2.7 2.2 1.6 2.9 2.8.7 1.2 1.1 2.5 1.1 4s-.4 2.8-1.1 4c-.7 1.2-1.7 2.1-2.9 2.8-1.2.7-2.6 1-4.2 1Zm0-4c1.1 0 1.9-.4 2.6-1.1.7-.7 1-1.6 1-2.7s-.3-2-1-2.7c-.7-.7-1.5-1.1-2.6-1.1s-1.9.4-2.6 1.1c-.7.7-1 1.6-1 2.7s.3 2 1 2.7c.7.7 1.5 1.1 2.6 1.1Zm16.5 4c-1.3 0-2.6-.2-3.8-.6-1.2-.4-2.1-.9-2.8-1.5l1.4-3.2c.7.5 1.5.9 2.4 1.2.9.3 1.9.5 2.8.5.8 0 1.3-.1 1.7-.3.4-.2.5-.5.5-.8s-.2-.6-.7-.8c-.5-.2-1.2-.4-2.2-.6-1.2-.3-2.2-.6-3-1-.8-.4-1.5-.9-2.1-1.6-.6-.7-.9-1.6-.9-2.8 0-1 .3-1.9.8-2.7.6-.8 1.4-1.5 2.5-1.9 1.1-.5 2.5-.7 4.1-.7 1.1 0 2.1.1 3.2.4 1 .2 1.9.6 2.7 1.1l-1.3 3.2c-1.5-.8-2.9-1.2-4.3-1.2-.8 0-1.3.1-1.7.4-.4.2-.5.5-.5.9s.2.6.7.8c.5.2 1.2.4 2.2.6 1.2.3 2.2.6 3 1 .8.3 1.5.9 2.1 1.6.6.7.9 1.6.9 2.7 0 1-.3 1.9-.8 2.7-.6.8-1.4 1.4-2.5 1.9-1.1.5-2.5.7-4.1.7Zm11.1-15.3h4.4v15h-4.4v-15Zm15.6 3.7h-4.6v-3.7h13.6v3.7h-4.6v11.3H160V21.2Z" fill="currentColor"/>
  <defs>
    <linearGradient id="paint0_linear" x1="6" y1="4" x2="43" y2="44" gradientUnits="userSpaceOnUse">
      <stop stop-color="#94B9D9"/>
      <stop offset="0.5" stop-color="#587C9E"/>
      <stop offset="1" stop-color="#163B46"/>
    </linearGradient>
  </defs>
</svg>
